<?xml version="1.0" encoding="UTF-8" standalone="no"?>
<!-- Uploaded to: SVG Repo, www.svgrepo.com, Generator: SVG Repo Mixer Tools -->

<svg
   width="800px"
   height="800px"
   viewBox="0 0 48 48"
   id="b"
   version="1.1"
   sodipodi:docname="discord.svg"
   inkscape:version="1.2.2 (732a01da63, 2022-12-09)"
   xmlns:inkscape="http://www.inkscape.org/namespaces/inkscape"
   xmlns:sodipodi="http://sodipodi.sourceforge.net/DTD/sodipodi-0.dtd"
   xmlns="http://www.w3.org/2000/svg"
   xmlns:svg="http://www.w3.org/2000/svg">
  <sodipodi:namedview
     id="namedview13"
     pagecolor="#505050"
     bordercolor="#eeeeee"
     borderopacity="1"
     inkscape:showpageshadow="0"
     inkscape:pageopacity="0"
     inkscape:pagecheckerboard="0"
     inkscape:deskcolor="#505050"
     showgrid="false"
     inkscape:zoom="0.45387417"
     inkscape:cx="89.231781"
     inkscape:cy="673.09405"
     inkscape:window-width="1350"
     inkscape:window-height="1230"
     inkscape:window-x="1769"
     inkscape:window-y="126"
     inkscape:window-maximized="0"
     inkscape:current-layer="b" />
  <defs
     id="defs4">
    <style
       id="style2">.e{fill:none;stroke:#000000;stroke-linecap:round;stroke-linejoin:round;}</style>
  </defs>
  <path
     class="e"
     d="m17.59,34.1733c-.89,1.3069-1.8944,2.6152-2.91,3.8267-7.38-.21-10.18-5-10.18-5,.1049-6.7869,1.7496-13.4614,4.81-19.52,2.6902-2.1046,5.9681-3.3207,9.38-3.48l1,2.31c1.4283-.1983,2.8681-.3018,4.31-.31,1.4484.0048,2.8948.105,4.33.3l1-2.31c3.4152.1679,6.6935,1.3947,9.38,3.51,3.0506,6.0542,4.6883,12.7214,4.79,19.5,0,0-2.8,4.79-10.18,5-1.0166-1.2213-1.9711-2.4929-2.86-3.81m6.46-2.9c-3.84,1.9454-7.5555,3.89-12.92,3.89s-9.08-1.9446-12.92-3.89"
     id="path6"
     style="stroke-width:3;stroke-dasharray:none;stroke:#d9d9d9;stroke-opacity:1" />
</svg>
