<?xml version="1.0" encoding="UTF-8" standalone="no"?>
<svg
   width="98"
   height="96"
   version="1.1"
   id="svg4"
   sodipodi:docname="github.svg"
   inkscape:version="1.2.2 (732a01da63, 2022-12-09)"
   xmlns:inkscape="http://www.inkscape.org/namespaces/inkscape"
   xmlns:sodipodi="http://sodipodi.sourceforge.net/DTD/sodipodi-0.dtd"
   xmlns="http://www.w3.org/2000/svg"
   xmlns:svg="http://www.w3.org/2000/svg">
  <defs
     id="defs8" />
  <sodipodi:namedview
     id="namedview6"
     pagecolor="#505050"
     bordercolor="#eeeeee"
     borderopacity="1"
     inkscape:showpageshadow="0"
     inkscape:pageopacity="0"
     inkscape:pagecheckerboard="0"
     inkscape:deskcolor="#505050"
     showgrid="false"
     inkscape:zoom="7.5645697"
     inkscape:cx="-46.070036"
     inkscape:cy="51.291748"
     inkscape:window-width="3440"
     inkscape:window-height="1417"
     inkscape:window-x="-8"
     inkscape:window-y="-8"
     inkscape:window-maximized="1"
     inkscape:current-layer="svg4" />
  <path
     fill-rule="evenodd"
     clip-rule="evenodd"
     d="M 49.031025,11.124882 C 28.277341,11.124882 11.5,28.025909 11.5,48.934779 c 0,16.713577 10.749812,30.861274 25.662678,35.868585 1.864484,0.376435 2.547433,-0.813559 2.547433,-1.814555 0,-0.876548 -0.06144,-3.881091 -0.06144,-7.011621 -10.440221,2.253983 -12.614306,-4.507197 -12.614306,-4.507197 -1.677815,-4.381973 -4.163793,-5.508195 -4.163793,-5.508195 -3.417086,-2.316209 0.248904,-2.316209 0.248904,-2.316209 3.790438,0.250443 5.779378,3.881085 5.779378,3.881085 3.354862,5.758643 8.760878,4.13153 10.935729,3.129762 0.310366,-2.441431 1.305223,-4.131529 2.361536,-5.070304 C 33.869287,64.709579 25.10841,61.454596 25.10841,46.931242 c 0,-4.131539 1.490363,-7.511741 3.851892,-10.140616 -0.372585,-0.938777 -1.67781,-4.820637 0.373357,-10.016171 0,0 3.168953,-1.001763 10.314238,3.881105 a 36.083689,36.083689 0 0 1 9.383136,-1.252221 c 3.168944,0 6.399354,0.438658 9.382372,1.252221 7.146062,-4.882868 10.315013,-3.881105 10.315013,-3.881105 2.05116,5.195534 0.745173,9.077394 0.372588,10.016171 2.423756,2.628875 3.852662,6.009077 3.852662,10.140616 0,14.523354 -8.760877,17.715342 -17.149933,18.654888 1.36745,1.189219 2.547443,3.442434 2.547443,7.010852 0,5.070306 -0.06145,9.139614 -0.06145,10.391059 0,1.001764 0.683724,2.191758 2.547448,1.816091 C 75.750007,79.795284 86.499832,65.648356 86.499832,48.934779 86.561293,28.025909 69.722494,11.124882 49.031025,11.124882 Z"
     fill="#fff"
     id="path2"
     style="fill:#d9d9d9;fill-opacity:1;stroke-width:0.768227" />
</svg>
