<svg width="200" height="30" viewBox="0 0 200 30" fill="none" xmlns="http://www.w3.org/2000/svg">
<path d="M197.03 14.7978C197.03 14.7978 197.029 14.8003 197.026 14.8053C197.028 14.8003 197.029 14.7978 197.03 14.7978ZM196.195 14.3965C196.557 14.6623 196.767 14.8646 196.885 15C196.767 15.1354 196.557 15.3377 196.195 15.6035C195.205 16.3293 193.554 17.1548 191.139 18.0112C186.346 19.711 179.243 21.2932 170.266 22.6398C152.357 25.3261 127.513 27 100 27C72.487 27 47.6428 25.3261 29.7343 22.6398C20.757 21.2932 13.6543 19.711 8.86123 18.0112C6.44632 17.1548 4.79543 16.3293 3.80526 15.6035C3.44277 15.3377 3.23333 15.1354 3.11489 15C3.23333 14.8646 3.44277 14.6623 3.80526 14.3965C4.79543 13.6707 6.44632 12.8452 8.86123 11.9888C13.6543 10.289 20.757 8.70681 29.7343 7.36021C47.6428 4.67394 72.487 3 100 3C127.513 3 152.357 4.67394 170.266 7.36021C179.243 8.70681 186.346 10.289 191.139 11.9888C193.554 12.8452 195.205 13.6707 196.195 14.3965ZM2.97048 14.7978C2.97061 14.7978 2.97181 14.8003 2.97364 14.8053C2.97126 14.8003 2.97034 14.7978 2.97048 14.7978ZM2.97048 15.2022C2.97034 15.2022 2.97126 15.1997 2.97364 15.1947C2.97181 15.1997 2.97061 15.2022 2.97048 15.2022ZM197.026 15.1947C197.029 15.1997 197.03 15.2022 197.03 15.2022C197.029 15.2022 197.028 15.1997 197.026 15.1947Z" stroke="#FF6F1D" stroke-width="6"/>
</svg>
