<svg width="445" height="200" viewBox="0 0 445 200" fill="none" xmlns="http://www.w3.org/2000/svg">
<path d="M444.96 100C444.96 155.228 400.188 200 344.96 200C289.731 200 244.96 155.228 244.96 100C244.96 44.7715 289.731 0 344.96 0C400.188 0 444.96 44.7715 444.96 100Z" fill="#FF6F1D"/>
<path d="M342.168 86.944C340.973 91.0507 338.957 94.112 336.12 96.128C333.357 98.144 329.587 99.5627 324.808 100.384C328.915 102.027 331.939 103.968 333.88 106.208C335.821 108.373 336.792 110.949 336.792 113.936C336.792 115.579 336.531 117.296 336.008 119.088C334.365 124.389 330.035 128.645 323.016 131.856C315.997 134.992 307.373 136.56 297.144 136.56C288.931 136.56 282.061 135.776 276.536 134.208C271.011 132.565 266.904 130.4 264.216 127.712C261.528 124.949 260.184 121.851 260.184 118.416C260.184 116.997 260.408 115.616 260.856 114.272C261.827 111.061 263.581 108.784 266.12 107.44C268.659 106.021 271.683 105.312 275.192 105.312C279.747 105.312 283.443 106.32 286.28 108.336C289.117 110.352 290.536 112.965 290.536 116.176C290.536 117.445 290.312 118.827 289.864 120.32C289.491 121.813 288.931 123.083 288.184 124.128C290.125 124.949 292.552 125.36 295.464 125.36C298.301 125.36 300.691 124.613 302.632 123.12C304.573 121.627 305.917 119.424 306.664 116.512C307.112 115.019 307.336 113.637 307.336 112.368C307.336 109.755 306.515 107.701 304.872 106.208C303.304 104.64 301.251 103.856 298.712 103.856C294.456 103.856 292.328 102.587 292.328 100.048C292.328 99.7493 292.403 99.2267 292.552 98.48C293.075 96.9867 293.784 95.8667 294.68 95.12C295.651 94.3733 296.995 94 298.712 94H301.96C304.573 93.9253 306.776 93.0667 308.568 91.424C310.435 89.7067 311.816 87.4293 312.712 84.592C313.16 82.8 313.384 81.2693 313.384 80C313.384 77.1627 312.6 75.072 311.032 73.728C309.464 72.3093 307.597 71.6 305.432 71.6C303.864 71.6 302.445 71.7493 301.176 72.048C301.4 73.2427 301.512 74.4747 301.512 75.744C301.512 76.864 301.4 77.984 301.176 79.104C300.429 81.9413 298.787 84.256 296.248 86.048C293.709 87.84 290.275 88.736 285.944 88.736C281.539 88.736 278.104 87.84 275.64 86.048C273.251 84.256 272.056 81.792 272.056 78.656C272.056 77.3867 272.28 76.0427 272.728 74.624C273.923 70.592 277.245 67.3813 282.696 64.992C288.147 62.6027 296.248 61.408 307 61.408C313.795 61.408 319.917 62.304 325.368 64.096C330.819 65.888 335.075 68.3893 338.136 71.6C341.272 74.736 342.84 78.32 342.84 82.352C342.84 83.8453 342.616 85.376 342.168 86.944Z" fill="white"/>
<path d="M393.092 61.408C404.292 61.408 412.73 63.5733 418.404 67.904C424.079 72.16 426.916 78.432 426.916 86.72C426.916 90.8267 426.17 95.568 424.676 100.944C422.212 109.605 418.89 116.475 414.708 121.552C410.527 126.629 405.002 130.325 398.132 132.64C391.338 134.955 382.602 136.075 371.924 136L341.46 135.888C339.892 135.888 338.698 135.627 337.876 135.104C336.98 134.581 336.532 133.872 336.532 132.976C336.532 132.528 336.644 132.043 336.868 131.52C337.092 130.848 337.428 130.363 337.876 130.064C338.25 129.765 338.847 129.355 339.668 128.832C340.863 128.16 341.796 127.413 342.468 126.592C343.215 125.771 343.85 124.464 344.372 122.672L358.036 74.512C358.335 73.5413 358.484 72.608 358.484 71.712C358.484 70.8907 358.335 70.2187 358.036 69.696C357.812 69.0987 357.476 68.4267 357.028 67.68C356.356 66.7093 356.02 65.9253 356.02 65.328C356.02 65.104 356.095 64.6933 356.244 64.096C356.543 63.1253 357.178 62.4533 358.148 62.08C359.194 61.632 360.762 61.408 362.852 61.408H393.092ZM396.004 98.48C397.946 91.4613 398.916 85.936 398.916 81.904C398.916 77.9467 398.095 75.2213 396.452 73.728C394.81 72.2347 392.458 71.488 389.396 71.488H386.932L371.812 125.92H374.5C377.935 125.92 380.81 125.211 383.124 123.792C385.514 122.299 387.716 119.611 389.732 115.728C391.748 111.771 393.839 106.021 396.004 98.48Z" fill="white"/>
<path d="M33.264 136.672C26.992 136.672 21.3547 135.515 16.352 133.2C11.3493 130.885 7.35467 127.488 4.368 123.008C1.456 118.453 0 112.965 0 106.544C0 102.064 0.784 97.2107 2.352 91.984C5.78667 80.784 10.976 72.72 17.92 67.792C24.864 62.7893 32.2933 60.288 40.208 60.288C44.464 60.288 48.2347 60.9227 51.52 62.192C54.8053 63.4613 57.8293 65.2907 60.592 67.68L63.616 65.328C65.632 63.76 67.312 62.6773 68.656 62.08C70.0747 61.4827 71.6427 61.184 73.36 61.184C75.2267 61.184 76.72 61.5947 77.84 62.416C78.96 63.2373 79.52 64.432 79.52 66C79.52 66.8213 79.3707 67.6427 79.072 68.464L72.8 85.936C72.128 87.952 71.3067 89.3707 70.336 90.192C69.44 91.0133 68.0587 91.424 66.192 91.424C64.2507 91.424 62.6453 90.752 61.376 89.408C60.1813 87.9893 58.8 85.6 57.232 82.24C55.44 78.7307 53.984 76.416 52.864 75.296C51.744 74.176 50.1013 73.616 47.936 73.616C44.8747 73.616 41.9253 75.52 39.088 79.328C36.2507 83.0613 33.6747 88.6987 31.36 96.24C29.4187 102.587 28.448 107.888 28.448 112.144C28.448 115.877 29.1573 118.677 30.576 120.544C31.9947 122.336 33.8987 123.232 36.288 123.232C39.7973 123.232 42.672 122.448 44.912 120.88C47.2267 119.312 49.5787 117.184 51.968 114.496C53.4613 112.853 54.656 111.659 55.552 110.912C56.5227 110.091 57.5307 109.68 58.576 109.68C59.92 109.68 61.3387 110.352 62.832 111.696C64.3253 113.04 65.0347 114.384 64.96 115.728C65.0347 117.371 63.6907 119.909 60.928 123.344C58.24 126.779 54.4693 129.877 49.616 132.64C44.8373 135.328 39.3867 136.672 33.264 136.672Z" fill="white"/>
<path d="M157.403 84.144C156.208 88.4747 153.968 91.872 150.683 94.336C147.398 96.7253 143.254 98.2187 138.251 98.816C141.835 99.1147 144.523 100.16 146.315 101.952C148.107 103.744 149.003 106.096 149.003 109.008C149.003 110.128 148.816 111.509 148.443 113.152L147.211 118.64C147.062 119.387 146.987 119.909 146.987 120.208C146.987 121.179 147.211 121.925 147.659 122.448C148.107 122.896 148.742 123.12 149.563 123.12C151.131 123.12 152.251 123.344 152.923 123.792C153.67 124.24 153.931 125.061 153.707 126.256C153.408 127.973 152.512 129.653 151.019 131.296C149.526 132.939 147.398 134.32 144.635 135.44C141.947 136.485 138.662 137.008 134.779 137.008C129.851 137.008 125.931 135.925 123.019 133.76C120.107 131.52 118.651 128.347 118.651 124.24C118.651 122.672 118.875 120.992 119.323 119.2L121.115 112.032C121.414 111.061 121.563 110.053 121.563 109.008C121.563 107.291 120.966 106.059 119.771 105.312C118.651 104.565 116.822 104.192 114.283 104.192H110.027L104.875 122.784C104.726 123.232 104.651 123.792 104.651 124.464C104.651 125.509 104.912 126.405 105.435 127.152C105.958 127.899 106.667 128.683 107.563 129.504C108.235 130.027 108.758 130.549 109.131 131.072C109.504 131.52 109.691 132.005 109.691 132.528C109.691 133.797 109.094 134.693 107.899 135.216C106.704 135.739 104.95 136 102.635 136H74.5229C72.5815 136 71.1255 135.664 70.1549 134.992C69.1842 134.245 68.8482 133.237 69.1469 131.968C69.2962 131.296 69.5949 130.773 70.0429 130.4C70.4162 129.952 71.0135 129.467 71.8349 128.944C73.1042 128.197 74.1122 127.413 74.8589 126.592C75.6055 125.771 76.2029 124.501 76.6509 122.784L90.3149 74.512C90.6135 73.5413 90.7629 72.608 90.7629 71.712C90.7629 70.8907 90.6135 70.2187 90.3149 69.696C90.0909 69.0987 89.7549 68.4267 89.3069 67.68C88.6349 66.7093 88.2989 65.9253 88.2989 65.328C88.2989 65.104 88.3735 64.6933 88.5229 64.096C88.8215 63.1253 89.4562 62.4533 90.4269 62.08C91.4722 61.632 93.0402 61.408 95.1309 61.408H132.651C137.803 61.408 142.283 62.192 146.091 63.76C149.974 65.328 152.923 67.4933 154.939 70.256C157.03 72.944 158.075 76.0053 158.075 79.44C158.075 81.008 157.851 82.576 157.403 84.144ZM128.731 83.024C129.104 81.3067 129.291 80 129.291 79.104C129.291 75.1467 127.126 73.168 122.795 73.168H118.091L113.163 92.992H117.867C120.779 92.992 123.056 92.2827 124.699 90.864C126.416 89.4453 127.76 86.832 128.731 83.024Z" fill="white"/>
<path d="M229.955 61.408C232.718 61.408 234.846 62.0053 236.339 63.2C237.907 64.3947 238.691 66.0373 238.691 68.128C238.691 69.1733 238.542 70.1813 238.243 71.152L235.331 81.568C234.809 83.584 234.025 85.0027 232.979 85.824C232.009 86.5707 230.59 86.944 228.723 86.944C226.931 86.944 225.513 86.5707 224.467 85.824C223.497 85.0027 222.75 83.696 222.227 81.904L220.435 75.52C220.062 74.176 219.614 73.28 219.091 72.832C218.569 72.384 217.561 72.16 216.067 72.16H204.307L198.707 92.096H203.635C204.158 92.096 204.867 91.7227 205.763 90.976L209.571 87.616C210.691 86.6453 211.662 85.936 212.483 85.488C213.305 85.04 214.313 84.816 215.507 84.816C216.851 84.816 217.934 85.1893 218.755 85.936C219.651 86.608 220.099 87.504 220.099 88.624C220.099 88.9227 220.025 89.3707 219.875 89.968L215.283 105.536C214.835 107.179 214.051 108.411 212.931 109.232C211.886 109.979 210.729 110.352 209.459 110.352C207.369 110.352 205.801 109.269 204.755 107.104L202.851 103.184C202.329 102.064 201.507 101.504 200.387 101.504H196.019L189.411 125.248H199.267C200.686 125.248 201.918 124.987 202.963 124.464C204.083 123.867 205.278 122.859 206.547 121.44L213.267 114.048C214.462 112.779 215.582 111.883 216.627 111.36C217.747 110.763 219.091 110.464 220.659 110.464C222.302 110.464 223.646 110.837 224.691 111.584C225.737 112.331 226.259 113.451 226.259 114.944C226.259 115.541 226.147 116.251 225.923 117.072L222.675 128.384C221.854 131.221 220.659 133.2 219.091 134.32C217.523 135.44 215.246 136 212.259 136H158.835C157.267 136 156.073 135.739 155.251 135.216C154.355 134.693 153.907 133.984 153.907 133.088C153.907 132.64 154.019 132.155 154.243 131.632C154.542 130.811 155.027 130.176 155.699 129.728C156.371 129.28 156.782 129.019 156.931 128.944C158.126 128.197 159.097 127.451 159.843 126.704C160.59 125.883 161.225 124.576 161.747 122.784L175.523 74.512C175.822 73.5413 175.971 72.6453 175.971 71.824C175.971 70.928 175.822 70.1813 175.523 69.584C175.299 68.9867 174.926 68.352 174.403 67.68C173.731 66.7093 173.395 65.9253 173.395 65.328C173.395 65.104 173.47 64.6933 173.619 64.096C173.918 63.1253 174.59 62.4533 175.635 62.08C176.681 61.632 178.211 61.408 180.227 61.408H229.955Z" fill="white"/>
<path d="M182.544 167.256C181.584 167.256 180.795 166.979 180.176 166.424C179.579 165.848 179.28 165.144 179.28 164.312C179.28 163.459 179.579 162.744 180.176 162.168C180.795 161.592 181.584 161.304 182.544 161.304C183.483 161.304 184.251 161.592 184.848 162.168C185.467 162.744 185.776 163.459 185.776 164.312C185.776 165.144 185.467 165.848 184.848 166.424C184.251 166.979 183.483 167.256 182.544 167.256ZM209.111 167H203.639L194.487 153.144V167H189.015V144.536H194.487L203.639 158.456V144.536H209.111V167ZM218.55 148.92V153.464H225.878V157.688H218.55V162.616H226.838V167H213.078V144.536H226.838V148.92H218.55ZM246.55 144.536V148.92H240.598V167H235.126V148.92H229.174V144.536H246.55Z" fill="white"/>
</svg>
