<svg width="445" height="200" viewBox="0 0 445 200" fill="none" xmlns="http://www.w3.org/2000/svg">
<g clip-path="url(#clip0_62_9)">
<path d="M345 200C400.228 200 445 155.228 445 100C445 44.7715 400.228 0 345 0C289.772 0 245 44.7715 245 100C245 155.228 289.772 200 345 200Z" fill="#FF6F1D"/>
<path d="M342.208 86.944C341.014 91.0507 338.998 94.112 336.16 96.128C333.398 98.144 329.627 99.5627 324.848 100.384C328.955 102.027 331.979 103.968 333.92 106.208C335.862 108.373 336.832 110.949 336.832 113.936C336.832 115.579 336.571 117.296 336.048 119.088C334.406 124.389 330.075 128.645 323.056 131.856C316.038 134.992 307.414 136.56 297.184 136.56C288.971 136.56 282.102 135.776 276.576 134.208C271.051 132.565 266.944 130.4 264.256 127.712C261.568 124.949 260.224 121.851 260.224 118.416C260.224 116.997 260.448 115.616 260.896 114.272C261.867 111.061 263.622 108.784 266.16 107.44C268.699 106.021 271.723 105.312 275.232 105.312C279.787 105.312 283.483 106.32 286.32 108.336C289.158 110.352 290.576 112.965 290.576 116.176C290.576 117.445 290.352 118.827 289.904 120.32C289.531 121.813 288.971 123.083 288.224 124.128C290.166 124.949 292.592 125.36 295.504 125.36C298.342 125.36 300.731 124.613 302.672 123.12C304.614 121.627 305.958 119.424 306.704 116.512C307.152 115.019 307.376 113.637 307.376 112.368C307.376 109.755 306.555 107.701 304.912 106.208C303.344 104.64 301.291 103.856 298.752 103.856C294.496 103.856 292.368 102.587 292.368 100.048C292.368 99.7493 292.443 99.2267 292.592 98.48C293.115 96.9867 293.824 95.8667 294.72 95.12C295.691 94.3733 297.035 94 298.752 94H302C304.614 93.9253 306.816 93.0667 308.608 91.424C310.475 89.7067 311.856 87.4293 312.752 84.592C313.2 82.8 313.424 81.2693 313.424 80C313.424 77.1627 312.64 75.072 311.072 73.728C309.504 72.3093 307.638 71.6 305.472 71.6C303.904 71.6 302.486 71.7493 301.216 72.048C301.44 73.2427 301.552 74.4747 301.552 75.744C301.552 76.864 301.44 77.984 301.216 79.104C300.47 81.9413 298.827 84.256 296.288 86.048C293.75 87.84 290.315 88.736 285.984 88.736C281.579 88.736 278.144 87.84 275.68 86.048C273.291 84.256 272.096 81.792 272.096 78.656C272.096 77.3867 272.32 76.0427 272.768 74.624C273.963 70.592 277.286 67.3813 282.736 64.992C288.187 62.6027 296.288 61.408 307.04 61.408C313.835 61.408 319.958 62.304 325.408 64.096C330.859 65.888 335.115 68.3893 338.176 71.6C341.312 74.736 342.88 78.32 342.88 82.352C342.88 83.8453 342.656 85.376 342.208 86.944ZM393.132 61.408C404.332 61.408 412.77 63.5733 418.444 67.904C424.119 72.16 426.956 78.432 426.956 86.72C426.956 90.8267 426.21 95.568 424.716 100.944C422.252 109.605 418.93 116.475 414.748 121.552C410.567 126.629 405.042 130.325 398.172 132.64C391.378 134.955 382.642 136.075 371.964 136L341.5 135.888C339.932 135.888 338.738 135.627 337.916 135.104C337.02 134.581 336.572 133.872 336.572 132.976C336.572 132.528 336.684 132.043 336.908 131.52C337.132 130.848 337.468 130.363 337.916 130.064C338.29 129.765 338.887 129.355 339.708 128.832C340.903 128.16 341.836 127.413 342.508 126.592C343.255 125.771 343.89 124.464 344.412 122.672L358.076 74.512C358.375 73.5413 358.524 72.608 358.524 71.712C358.524 70.8907 358.375 70.2187 358.076 69.696C357.852 69.0987 357.516 68.4267 357.068 67.68C356.396 66.7093 356.06 65.9253 356.06 65.328C356.06 65.104 356.135 64.6933 356.284 64.096C356.583 63.1253 357.218 62.4533 358.188 62.08C359.234 61.632 360.802 61.408 362.892 61.408H393.132ZM396.044 98.48C397.986 91.4613 398.956 85.936 398.956 81.904C398.956 77.9467 398.135 75.2213 396.492 73.728C394.85 72.2347 392.498 71.488 389.436 71.488H386.972L371.852 125.92H374.54C377.975 125.92 380.85 125.211 383.164 123.792C385.554 122.299 387.756 119.611 389.772 115.728C391.788 111.771 393.879 106.021 396.044 98.48Z" fill="white"/>
</g>
<defs>
<clipPath id="clip0_62_9">
<rect width="200" height="200" fill="white" transform="translate(245)"/>
</clipPath>
</defs>
</svg>
