<svg width="774" height="231" viewBox="0 0 774 231" fill="none" xmlns="http://www.w3.org/2000/svg">
<mask id="path-1-inside-1_69_45" fill="white">
<path d="M773.37 0.472453C778.519 19.6859 742.749 49.0198 673.931 82.0209C605.113 115.022 508.883 148.987 406.411 176.444C303.94 203.902 203.62 222.602 127.521 228.431C51.4221 234.26 5.77794 226.741 0.629693 207.528L155.178 166.117C158.267 177.645 185.653 182.156 231.313 178.659C276.972 175.161 337.164 163.941 398.647 147.467C460.13 130.992 517.868 110.613 559.159 90.8126C600.45 71.0119 621.911 53.4116 618.822 41.8835L773.37 0.472453Z"/>
</mask>
<path d="M773.37 0.472453C778.519 19.6859 742.749 49.0198 673.931 82.0209C605.113 115.022 508.883 148.987 406.411 176.444C303.94 203.902 203.62 222.602 127.521 228.431C51.4221 234.26 5.77794 226.741 0.629693 207.528L155.178 166.117C158.267 177.645 185.653 182.156 231.313 178.659C276.972 175.161 337.164 163.941 398.647 147.467C460.13 130.992 517.868 110.613 559.159 90.8126C600.45 71.0119 621.911 53.4116 618.822 41.8835L773.37 0.472453Z" stroke="url(#paint0_linear_69_45)" stroke-width="100" style="mix-blend-mode:screen" mask="url(#path-1-inside-1_69_45)"/>
<defs>
<linearGradient id="paint0_linear_69_45" x1="367.589" y1="31.5556" x2="406.411" y2="176.445" gradientUnits="userSpaceOnUse">
<stop stop-color="#0F0F0F"/>
<stop offset="1" stop-color="#2B2B2B"/>
</linearGradient>
</defs>
</svg>
