<svg width="774" height="231" viewBox="0 0 774 231" fill="none" xmlns="http://www.w3.org/2000/svg">
<mask id="path-1-inside-1_69_47" fill="white">
<path d="M0.629688 230.528C-4.51853 211.314 31.2508 181.98 100.069 148.979C168.887 115.978 265.117 82.0129 367.588 54.5557C470.06 27.0984 570.38 8.39829 646.479 2.56905C722.578 -3.26019 768.222 4.25896 773.37 23.4724L618.822 64.8835C615.733 53.3554 588.347 48.8439 542.687 52.3415C497.028 55.839 436.836 67.0591 375.353 83.5334C313.87 100.008 256.132 120.387 214.841 140.188C173.55 159.988 152.089 177.589 155.178 189.117L0.629688 230.528Z"/>
</mask>
<path d="M0.629688 230.528C-4.51853 211.314 31.2508 181.98 100.069 148.979C168.887 115.978 265.117 82.0129 367.588 54.5557C470.06 27.0984 570.38 8.39829 646.479 2.56905C722.578 -3.26019 768.222 4.25896 773.37 23.4724L618.822 64.8835C615.733 53.3554 588.347 48.8439 542.687 52.3415C497.028 55.839 436.836 67.0591 375.353 83.5334C313.87 100.008 256.132 120.387 214.841 140.188C173.55 159.988 152.089 177.589 155.178 189.117L0.629688 230.528Z" stroke="url(#paint0_linear_69_47)" stroke-width="100" style="mix-blend-mode:screen" mask="url(#path-1-inside-1_69_47)"/>
<defs>
<linearGradient id="paint0_linear_69_47" x1="367.589" y1="54.5556" x2="406.411" y2="199.445" gradientUnits="userSpaceOnUse">
<stop stop-color="#0F0F0F"/>
<stop offset="1" stop-color="#2B2B2B"/>
</linearGradient>
</defs>
</svg>
