<svg width="908" height="398" viewBox="0 0 908 398" fill="none" xmlns="http://www.w3.org/2000/svg">
<g filter="url(#filter0_d_11_50)">
<path d="M49.0139 32.7388C49.2931 30.3863 52.7069 30.3863 52.9861 32.7388L54.5266 45.7229C54.6356 46.6408 55.3592 47.3644 56.2771 47.4733L69.2612 49.0139C71.6137 49.2931 71.6137 52.7069 69.2612 52.9861L56.2771 54.5266C55.3592 54.6356 54.6356 55.3592 54.5266 56.2771L52.9861 69.2612C52.7069 71.6137 49.2931 71.6137 49.0139 69.2612L47.4733 56.2771C47.3644 55.3592 46.6408 54.6356 45.7229 54.5266L32.7388 52.9861C30.3863 52.7069 30.3863 49.2931 32.7388 49.0139L45.7229 47.4733C46.6408 47.3644 47.3644 46.6408 47.4733 45.7229L49.0139 32.7388Z" fill="#FEE440"/>
</g>
<g filter="url(#filter1_f_11_50)">
<path d="M49.0139 32.7388C49.2931 30.3863 52.7069 30.3863 52.9861 32.7388L54.5266 45.7229C54.6356 46.6408 55.3592 47.3644 56.2771 47.4733L69.2612 49.0139C71.6137 49.2931 71.6137 52.7069 69.2612 52.9861L56.2771 54.5266C55.3592 54.6356 54.6356 55.3592 54.5266 56.2771L52.9861 69.2612C52.7069 71.6137 49.2931 71.6137 49.0139 69.2612L47.4733 56.2771C47.3644 55.3592 46.6408 54.6356 45.7229 54.5266L32.7388 52.9861C30.3863 52.7069 30.3863 49.2931 32.7388 49.0139L45.7229 47.4733C46.6408 47.3644 47.3644 46.6408 47.4733 45.7229L49.0139 32.7388Z" fill="#FEE440"/>
</g>
<g filter="url(#filter2_d_11_50)">
<path d="M303.014 102.739C303.293 100.386 306.707 100.386 306.986 102.739L308.527 115.723C308.636 116.641 309.359 117.364 310.277 117.473L323.261 119.014C325.614 119.293 325.614 122.707 323.261 122.986L310.277 124.527C309.359 124.636 308.636 125.359 308.527 126.277L306.986 139.261C306.707 141.614 303.293 141.614 303.014 139.261L301.473 126.277C301.364 125.359 300.641 124.636 299.723 124.527L286.739 122.986C284.386 122.707 284.386 119.293 286.739 119.014L299.723 117.473C300.641 117.364 301.364 116.641 301.473 115.723L303.014 102.739Z" fill="#FEE440"/>
</g>
<g filter="url(#filter3_f_11_50)">
<path d="M303.014 102.739C303.293 100.386 306.707 100.386 306.986 102.739L308.527 115.723C308.636 116.641 309.359 117.364 310.277 117.473L323.261 119.014C325.614 119.293 325.614 122.707 323.261 122.986L310.277 124.527C309.359 124.636 308.636 125.359 308.527 126.277L306.986 139.261C306.707 141.614 303.293 141.614 303.014 139.261L301.473 126.277C301.364 125.359 300.641 124.636 299.723 124.527L286.739 122.986C284.386 122.707 284.386 119.293 286.739 119.014L299.723 117.473C300.641 117.364 301.364 116.641 301.473 115.723L303.014 102.739Z" fill="#FEE440"/>
</g>
<g filter="url(#filter4_d_11_50)">
<path d="M538.014 127.739C538.293 125.386 541.707 125.386 541.986 127.739L543.527 140.723C543.636 141.641 544.359 142.364 545.277 142.473L558.261 144.014C560.614 144.293 560.614 147.707 558.261 147.986L545.277 149.527C544.359 149.636 543.636 150.359 543.527 151.277L541.986 164.261C541.707 166.614 538.293 166.614 538.014 164.261L536.473 151.277C536.364 150.359 535.641 149.636 534.723 149.527L521.739 147.986C519.386 147.707 519.386 144.293 521.739 144.014L534.723 142.473C535.641 142.364 536.364 141.641 536.473 140.723L538.014 127.739Z" fill="#FEE440"/>
</g>
<g filter="url(#filter5_f_11_50)">
<path d="M538.014 127.739C538.293 125.386 541.707 125.386 541.986 127.739L543.527 140.723C543.636 141.641 544.359 142.364 545.277 142.473L558.261 144.014C560.614 144.293 560.614 147.707 558.261 147.986L545.277 149.527C544.359 149.636 543.636 150.359 543.527 151.277L541.986 164.261C541.707 166.614 538.293 166.614 538.014 164.261L536.473 151.277C536.364 150.359 535.641 149.636 534.723 149.527L521.739 147.986C519.386 147.707 519.386 144.293 521.739 144.014L534.723 142.473C535.641 142.364 536.364 141.641 536.473 140.723L538.014 127.739Z" fill="#FEE440"/>
</g>
<g filter="url(#filter6_d_11_50)">
<path d="M855.014 111.739C855.293 109.386 858.707 109.386 858.986 111.739L860.527 124.723C860.636 125.641 861.359 126.364 862.277 126.473L875.261 128.014C877.614 128.293 877.614 131.707 875.261 131.986L862.277 133.527C861.359 133.636 860.636 134.359 860.527 135.277L858.986 148.261C858.707 150.614 855.293 150.614 855.014 148.261L853.473 135.277C853.364 134.359 852.641 133.636 851.723 133.527L838.739 131.986C836.386 131.707 836.386 128.293 838.739 128.014L851.723 126.473C852.641 126.364 853.364 125.641 853.473 124.723L855.014 111.739Z" fill="#FEE440"/>
</g>
<g filter="url(#filter7_f_11_50)">
<path d="M855.014 111.739C855.293 109.386 858.707 109.386 858.986 111.739L860.527 124.723C860.636 125.641 861.359 126.364 862.277 126.473L875.261 128.014C877.614 128.293 877.614 131.707 875.261 131.986L862.277 133.527C861.359 133.636 860.636 134.359 860.527 135.277L858.986 148.261C858.707 150.614 855.293 150.614 855.014 148.261L853.473 135.277C853.364 134.359 852.641 133.636 851.723 133.527L838.739 131.986C836.386 131.707 836.386 128.293 838.739 128.014L851.723 126.473C852.641 126.364 853.364 125.641 853.473 124.723L855.014 111.739Z" fill="#FEE440"/>
</g>
<g filter="url(#filter8_d_11_50)">
<path d="M829.014 293.739C829.293 291.386 832.707 291.386 832.986 293.739L834.527 306.723C834.636 307.641 835.359 308.364 836.277 308.473L849.261 310.014C851.614 310.293 851.614 313.707 849.261 313.986L836.277 315.527C835.359 315.636 834.636 316.359 834.527 317.277L832.986 330.261C832.707 332.614 829.293 332.614 829.014 330.261L827.473 317.277C827.364 316.359 826.641 315.636 825.723 315.527L812.739 313.986C810.386 313.707 810.386 310.293 812.739 310.014L825.723 308.473C826.641 308.364 827.364 307.641 827.473 306.723L829.014 293.739Z" fill="#FEE440"/>
</g>
<g filter="url(#filter9_f_11_50)">
<path d="M829.014 293.739C829.293 291.386 832.707 291.386 832.986 293.739L834.527 306.723C834.636 307.641 835.359 308.364 836.277 308.473L849.261 310.014C851.614 310.293 851.614 313.707 849.261 313.986L836.277 315.527C835.359 315.636 834.636 316.359 834.527 317.277L832.986 330.261C832.707 332.614 829.293 332.614 829.014 330.261L827.473 317.277C827.364 316.359 826.641 315.636 825.723 315.527L812.739 313.986C810.386 313.707 810.386 310.293 812.739 310.014L825.723 308.473C826.641 308.364 827.364 307.641 827.473 306.723L829.014 293.739Z" fill="#FEE440"/>
</g>
<g filter="url(#filter10_d_11_50)">
<path d="M608.014 328.739C608.293 326.386 611.707 326.386 611.986 328.739L613.527 341.723C613.636 342.641 614.359 343.364 615.277 343.473L628.261 345.014C630.614 345.293 630.614 348.707 628.261 348.986L615.277 350.527C614.359 350.636 613.636 351.359 613.527 352.277L611.986 365.261C611.707 367.614 608.293 367.614 608.014 365.261L606.473 352.277C606.364 351.359 605.641 350.636 604.723 350.527L591.739 348.986C589.386 348.707 589.386 345.293 591.739 345.014L604.723 343.473C605.641 343.364 606.364 342.641 606.473 341.723L608.014 328.739Z" fill="#FEE440"/>
</g>
<g filter="url(#filter11_f_11_50)">
<path d="M608.014 328.739C608.293 326.386 611.707 326.386 611.986 328.739L613.527 341.723C613.636 342.641 614.359 343.364 615.277 343.473L628.261 345.014C630.614 345.293 630.614 348.707 628.261 348.986L615.277 350.527C614.359 350.636 613.636 351.359 613.527 352.277L611.986 365.261C611.707 367.614 608.293 367.614 608.014 365.261L606.473 352.277C606.364 351.359 605.641 350.636 604.723 350.527L591.739 348.986C589.386 348.707 589.386 345.293 591.739 345.014L604.723 343.473C605.641 343.364 606.364 342.641 606.473 341.723L608.014 328.739Z" fill="#FEE440"/>
</g>
<defs>
<filter id="filter0_d_11_50" x="26.9744" y="30.9744" width="48.0513" height="48.0513" filterUnits="userSpaceOnUse" color-interpolation-filters="sRGB">
<feFlood flood-opacity="0" result="BackgroundImageFix"/>
<feColorMatrix in="SourceAlpha" type="matrix" values="0 0 0 0 0 0 0 0 0 0 0 0 0 0 0 0 0 0 127 0" result="hardAlpha"/>
<feOffset dy="4"/>
<feGaussianBlur stdDeviation="2"/>
<feComposite in2="hardAlpha" operator="out"/>
<feColorMatrix type="matrix" values="0 0 0 0 0 0 0 0 0 0 0 0 0 0 0 0 0 0 0.25 0"/>
<feBlend mode="normal" in2="BackgroundImageFix" result="effect1_dropShadow_11_50"/>
<feBlend mode="normal" in="SourceGraphic" in2="effect1_dropShadow_11_50" result="shape"/>
</filter>
<filter id="filter1_f_11_50" x="0.974365" y="0.974365" width="100.051" height="100.051" filterUnits="userSpaceOnUse" color-interpolation-filters="sRGB">
<feFlood flood-opacity="0" result="BackgroundImageFix"/>
<feBlend mode="normal" in="SourceGraphic" in2="BackgroundImageFix" result="shape"/>
<feGaussianBlur stdDeviation="15" result="effect1_foregroundBlur_11_50"/>
</filter>
<filter id="filter2_d_11_50" x="280.974" y="100.974" width="48.0513" height="48.0513" filterUnits="userSpaceOnUse" color-interpolation-filters="sRGB">
<feFlood flood-opacity="0" result="BackgroundImageFix"/>
<feColorMatrix in="SourceAlpha" type="matrix" values="0 0 0 0 0 0 0 0 0 0 0 0 0 0 0 0 0 0 127 0" result="hardAlpha"/>
<feOffset dy="4"/>
<feGaussianBlur stdDeviation="2"/>
<feComposite in2="hardAlpha" operator="out"/>
<feColorMatrix type="matrix" values="0 0 0 0 0 0 0 0 0 0 0 0 0 0 0 0 0 0 0.25 0"/>
<feBlend mode="normal" in2="BackgroundImageFix" result="effect1_dropShadow_11_50"/>
<feBlend mode="normal" in="SourceGraphic" in2="effect1_dropShadow_11_50" result="shape"/>
</filter>
<filter id="filter3_f_11_50" x="254.974" y="70.9744" width="100.051" height="100.051" filterUnits="userSpaceOnUse" color-interpolation-filters="sRGB">
<feFlood flood-opacity="0" result="BackgroundImageFix"/>
<feBlend mode="normal" in="SourceGraphic" in2="BackgroundImageFix" result="shape"/>
<feGaussianBlur stdDeviation="15" result="effect1_foregroundBlur_11_50"/>
</filter>
<filter id="filter4_d_11_50" x="515.974" y="125.974" width="48.0513" height="48.0513" filterUnits="userSpaceOnUse" color-interpolation-filters="sRGB">
<feFlood flood-opacity="0" result="BackgroundImageFix"/>
<feColorMatrix in="SourceAlpha" type="matrix" values="0 0 0 0 0 0 0 0 0 0 0 0 0 0 0 0 0 0 127 0" result="hardAlpha"/>
<feOffset dy="4"/>
<feGaussianBlur stdDeviation="2"/>
<feComposite in2="hardAlpha" operator="out"/>
<feColorMatrix type="matrix" values="0 0 0 0 0 0 0 0 0 0 0 0 0 0 0 0 0 0 0.25 0"/>
<feBlend mode="normal" in2="BackgroundImageFix" result="effect1_dropShadow_11_50"/>
<feBlend mode="normal" in="SourceGraphic" in2="effect1_dropShadow_11_50" result="shape"/>
</filter>
<filter id="filter5_f_11_50" x="489.974" y="95.9744" width="100.051" height="100.051" filterUnits="userSpaceOnUse" color-interpolation-filters="sRGB">
<feFlood flood-opacity="0" result="BackgroundImageFix"/>
<feBlend mode="normal" in="SourceGraphic" in2="BackgroundImageFix" result="shape"/>
<feGaussianBlur stdDeviation="15" result="effect1_foregroundBlur_11_50"/>
</filter>
<filter id="filter6_d_11_50" x="832.974" y="109.974" width="48.0513" height="48.0513" filterUnits="userSpaceOnUse" color-interpolation-filters="sRGB">
<feFlood flood-opacity="0" result="BackgroundImageFix"/>
<feColorMatrix in="SourceAlpha" type="matrix" values="0 0 0 0 0 0 0 0 0 0 0 0 0 0 0 0 0 0 127 0" result="hardAlpha"/>
<feOffset dy="4"/>
<feGaussianBlur stdDeviation="2"/>
<feComposite in2="hardAlpha" operator="out"/>
<feColorMatrix type="matrix" values="0 0 0 0 0 0 0 0 0 0 0 0 0 0 0 0 0 0 0.25 0"/>
<feBlend mode="normal" in2="BackgroundImageFix" result="effect1_dropShadow_11_50"/>
<feBlend mode="normal" in="SourceGraphic" in2="effect1_dropShadow_11_50" result="shape"/>
</filter>
<filter id="filter7_f_11_50" x="806.974" y="79.9744" width="100.051" height="100.051" filterUnits="userSpaceOnUse" color-interpolation-filters="sRGB">
<feFlood flood-opacity="0" result="BackgroundImageFix"/>
<feBlend mode="normal" in="SourceGraphic" in2="BackgroundImageFix" result="shape"/>
<feGaussianBlur stdDeviation="15" result="effect1_foregroundBlur_11_50"/>
</filter>
<filter id="filter8_d_11_50" x="806.974" y="291.974" width="48.0513" height="48.0513" filterUnits="userSpaceOnUse" color-interpolation-filters="sRGB">
<feFlood flood-opacity="0" result="BackgroundImageFix"/>
<feColorMatrix in="SourceAlpha" type="matrix" values="0 0 0 0 0 0 0 0 0 0 0 0 0 0 0 0 0 0 127 0" result="hardAlpha"/>
<feOffset dy="4"/>
<feGaussianBlur stdDeviation="2"/>
<feComposite in2="hardAlpha" operator="out"/>
<feColorMatrix type="matrix" values="0 0 0 0 0 0 0 0 0 0 0 0 0 0 0 0 0 0 0.25 0"/>
<feBlend mode="normal" in2="BackgroundImageFix" result="effect1_dropShadow_11_50"/>
<feBlend mode="normal" in="SourceGraphic" in2="effect1_dropShadow_11_50" result="shape"/>
</filter>
<filter id="filter9_f_11_50" x="780.974" y="261.974" width="100.051" height="100.051" filterUnits="userSpaceOnUse" color-interpolation-filters="sRGB">
<feFlood flood-opacity="0" result="BackgroundImageFix"/>
<feBlend mode="normal" in="SourceGraphic" in2="BackgroundImageFix" result="shape"/>
<feGaussianBlur stdDeviation="15" result="effect1_foregroundBlur_11_50"/>
</filter>
<filter id="filter10_d_11_50" x="585.974" y="326.974" width="48.0513" height="48.0513" filterUnits="userSpaceOnUse" color-interpolation-filters="sRGB">
<feFlood flood-opacity="0" result="BackgroundImageFix"/>
<feColorMatrix in="SourceAlpha" type="matrix" values="0 0 0 0 0 0 0 0 0 0 0 0 0 0 0 0 0 0 127 0" result="hardAlpha"/>
<feOffset dy="4"/>
<feGaussianBlur stdDeviation="2"/>
<feComposite in2="hardAlpha" operator="out"/>
<feColorMatrix type="matrix" values="0 0 0 0 0 0 0 0 0 0 0 0 0 0 0 0 0 0 0.25 0"/>
<feBlend mode="normal" in2="BackgroundImageFix" result="effect1_dropShadow_11_50"/>
<feBlend mode="normal" in="SourceGraphic" in2="effect1_dropShadow_11_50" result="shape"/>
</filter>
<filter id="filter11_f_11_50" x="559.974" y="296.974" width="100.051" height="100.051" filterUnits="userSpaceOnUse" color-interpolation-filters="sRGB">
<feFlood flood-opacity="0" result="BackgroundImageFix"/>
<feBlend mode="normal" in="SourceGraphic" in2="BackgroundImageFix" result="shape"/>
<feGaussianBlur stdDeviation="15" result="effect1_foregroundBlur_11_50"/>
</filter>
</defs>
</svg>
