<svg width="600" height="213" viewBox="0 0 600 213" fill="none" xmlns="http://www.w3.org/2000/svg">
<ellipse cx="300" cy="100" rx="150" ry="100" fill="#2A2A2A"/>
<ellipse cx="299.5" cy="101.5" rx="182.5" ry="41.5" fill="#3D3D3D"/>
<ellipse cx="300" cy="142.5" rx="300" ry="57.5" fill="#3D3D3D"/>
<path d="M0 150.467V142.5H600V150.467H0Z" fill="#3D3D3D"/>
<ellipse cx="300" cy="150.5" rx="300" ry="57.5" fill="#0F0F0F"/>
<ellipse cx="300" cy="158" rx="100" ry="15" fill="#FF6F1D"/>
<g filter="url(#filter0_f_45_10)">
<ellipse cx="300" cy="158" rx="100" ry="15" fill="#FF6F1D"/>
</g>
<g filter="url(#filter1_f_45_10)">
<ellipse cx="300" cy="72.5" rx="8" ry="8.5" fill="#FFEF8B"/>
</g>
<g filter="url(#filter2_f_45_10)">
<ellipse cx="248.5" cy="74" rx="7.5" ry="8" transform="rotate(15 248.5 74)" fill="#FFEF8B"/>
</g>
<g filter="url(#filter3_f_45_10)">
<ellipse cx="197" cy="78" rx="7" ry="8" transform="rotate(15 197 78)" fill="#FFEF8B"/>
</g>
<g filter="url(#filter4_f_45_10)">
<ellipse cx="351.5" cy="74" rx="7.5" ry="8" transform="rotate(-15 351.5 74)" fill="#FFEF8B"/>
</g>
<g filter="url(#filter5_f_45_10)">
<ellipse cx="403" cy="78" rx="7" ry="8" transform="rotate(-15 403 78)" fill="#FFEF8B"/>
</g>
<ellipse cx="300" cy="72.5" rx="8" ry="8.5" fill="#FEE440"/>
<ellipse cx="248.5" cy="74" rx="7.5" ry="8" transform="rotate(15 248.5 74)" fill="#FEE440"/>
<ellipse cx="197" cy="78" rx="7" ry="8" transform="rotate(15 197 78)" fill="#FEE440"/>
<ellipse cx="351.5" cy="74" rx="7.5" ry="8" transform="rotate(-15 351.5 74)" fill="#FEE440"/>
<ellipse cx="403" cy="78" rx="7" ry="8" transform="rotate(-15 403 78)" fill="#FEE440"/>
<ellipse cx="390.32" cy="38.6603" rx="20" ry="10" transform="rotate(30 390.32 38.6603)" fill="white"/>
<ellipse cx="301.627" cy="68.8684" rx="4.14613" ry="2.07307" transform="rotate(30 301.627 68.8684)" fill="white"/>
<ellipse cx="353.193" cy="70.6178" rx="3.645" ry="2.07307" transform="rotate(30 353.193 70.6178)" fill="white"/>
<ellipse cx="404.761" cy="74.3695" rx="3.145" ry="2.075" transform="rotate(30 404.761 74.3695)" fill="white"/>
<ellipse cx="198.761" cy="74.3695" rx="3.145" ry="2.075" transform="rotate(30 198.761 74.3695)" fill="white"/>
<ellipse cx="250.193" cy="70.6178" rx="3.645" ry="2.07307" transform="rotate(30 250.193 70.6178)" fill="white"/>
<defs>
<filter id="filter0_f_45_10" x="160" y="103" width="280" height="110" filterUnits="userSpaceOnUse" color-interpolation-filters="sRGB">
<feFlood flood-opacity="0" result="BackgroundImageFix"/>
<feBlend mode="normal" in="SourceGraphic" in2="BackgroundImageFix" result="shape"/>
<feGaussianBlur stdDeviation="20" result="effect1_foregroundBlur_45_10"/>
</filter>
<filter id="filter1_f_45_10" x="288" y="60" width="24" height="25" filterUnits="userSpaceOnUse" color-interpolation-filters="sRGB">
<feFlood flood-opacity="0" result="BackgroundImageFix"/>
<feBlend mode="normal" in="SourceGraphic" in2="BackgroundImageFix" result="shape"/>
<feGaussianBlur stdDeviation="2" result="effect1_foregroundBlur_45_10"/>
</filter>
<filter id="filter2_f_45_10" x="236.964" y="62.0306" width="23.073" height="23.9387" filterUnits="userSpaceOnUse" color-interpolation-filters="sRGB">
<feFlood flood-opacity="0" result="BackgroundImageFix"/>
<feBlend mode="normal" in="SourceGraphic" in2="BackgroundImageFix" result="shape"/>
<feGaussianBlur stdDeviation="2" result="effect1_foregroundBlur_45_10"/>
</filter>
<filter id="filter3_f_45_10" x="185.927" y="66.0613" width="22.1465" height="23.8774" filterUnits="userSpaceOnUse" color-interpolation-filters="sRGB">
<feFlood flood-opacity="0" result="BackgroundImageFix"/>
<feBlend mode="normal" in="SourceGraphic" in2="BackgroundImageFix" result="shape"/>
<feGaussianBlur stdDeviation="2" result="effect1_foregroundBlur_45_10"/>
</filter>
<filter id="filter4_f_45_10" x="339.964" y="62.0306" width="23.073" height="23.9387" filterUnits="userSpaceOnUse" color-interpolation-filters="sRGB">
<feFlood flood-opacity="0" result="BackgroundImageFix"/>
<feBlend mode="normal" in="SourceGraphic" in2="BackgroundImageFix" result="shape"/>
<feGaussianBlur stdDeviation="2" result="effect1_foregroundBlur_45_10"/>
</filter>
<filter id="filter5_f_45_10" x="391.927" y="66.0613" width="22.1465" height="23.8774" filterUnits="userSpaceOnUse" color-interpolation-filters="sRGB">
<feFlood flood-opacity="0" result="BackgroundImageFix"/>
<feBlend mode="normal" in="SourceGraphic" in2="BackgroundImageFix" result="shape"/>
<feGaussianBlur stdDeviation="2" result="effect1_foregroundBlur_45_10"/>
</filter>
</defs>
</svg>
